<?xml version="1.0" standalone="no"?>
<!DOCTYPE svg PUBLIC "-//W3C//DTD SVG 20010904//EN"
 "http://www.w3.org/TR/2001/REC-SVG-20010904/DTD/svg10.dtd">
<svg version="1.0" xmlns="http://www.w3.org/2000/svg"
 width="256.000000pt" height="256.000000pt" viewBox="0 0 256.000000 256.000000"
 preserveAspectRatio="xMidYMid meet">
<metadata>
Created by potrace 1.15, written by Peter Selinger 2001-2017
</metadata>
<g transform="translate(0.000000,256.000000) scale(0.100000,-0.100000)"
fill="#000000" stroke="none">
<path d="M893 2376 c-103 -33 -179 -110 -252 -260 -41 -83 -63 -115 -111 -159
-56 -53 -169 -117 -203 -117 -42 0 -11 -42 48 -64 33 -13 -77 -46 -177 -53
-49 -3 -88 -9 -88 -14 0 -4 21 -26 46 -48 206 -181 612 -154 820 53 33 34 73
80 88 104 26 42 27 42 56 27 16 -8 31 -19 34 -24 8 -12 -84 -130 -140 -180
-106 -93 -271 -164 -412 -177 -70 -7 -72 -8 -72 -35 0 -25 121 -514 153 -619
17 -53 22 -44 34 59 l8 73 44 -78 c71 -127 225 -373 234 -374 4 0 7 42 8 93
l1 92 18 -70 c42 -159 116 -331 199 -458 28 -42 52 -77 54 -77 2 0 35 45 72
101 85 126 184 320 216 423 l24 78 5 -63 5 -64 67 109 67 109 3 -67 3 -67 113
288 c138 349 170 437 174 483 3 32 1 35 -27 38 -77 8 -200 48 -301 97 -87 42
-127 69 -188 126 -42 40 -91 92 -107 115 l-30 44 33 20 33 20 18 -22 c69 -87
97 -115 151 -155 134 -99 303 -158 481 -169 97 -7 198 10 258 43 l32 18 -77 3
c-43 2 -78 6 -78 10 0 4 26 18 58 32 54 23 172 123 172 145 0 6 -55 10 -132
10 -129 0 -135 1 -187 30 -71 39 -103 79 -163 205 -27 58 -62 129 -76 159 -38
77 -112 155 -180 188 -75 37 -182 39 -253 4 -66 -31 -125 -85 -158 -142 l-27
-49 -16 33 c-37 78 -118 144 -208 171 -64 19 -110 19 -167 2z"/>
</g>
</svg>
